<svg width="40" height="41" viewBox="0 0 40 41" fill="none" xmlns="http://www.w3.org/2000/svg">
<path d="M35.3596 40.5H31.3748C29.0304 40.5 27.6856 37.7517 26.4996 35.327C25.6416 33.5737 24.6696 31.5867 23.6944 31.5867H16.3036C15.184 31.5867 14.2096 33.5836 13.2672 35.5153C12.0712 37.9659 10.8348 40.5 8.624 40.5H4.64C2.0816 40.5 0 38.3372 0 35.6775V17.823C0 15.1637 2.0812 13 4.64 13H35.36C37.9184 13 40 15.1637 40 17.823V35.6775C39.9996 38.3367 37.9184 40.5 35.3596 40.5ZM16.3036 29.9232H23.6952C25.652 29.9232 26.7564 32.1821 27.9264 34.5732C28.9516 36.6691 30.012 38.8369 31.3752 38.8369H35.36C37.036 38.8369 38.4 37.4195 38.4 35.6775V17.823C38.4 16.0809 37.0364 14.6631 35.36 14.6631H4.64C2.964 14.6631 1.6 16.0809 1.6 17.823V35.6775C1.6 37.4191 2.9636 38.8369 4.64 38.8369H8.624C9.8524 38.8369 10.8632 36.766 11.84 34.7632C13.0008 32.3837 14.2012 29.9232 16.3036 29.9232Z" fill="url(#paint0_linear_2038_387)"/>
<path d="M8.62681 26.1841C6.33786 26.1841 4.47559 24.2921 4.47559 21.9674C4.47559 19.642 6.33786 17.7508 8.62681 17.7508C10.9158 17.7508 12.778 19.6424 12.778 21.9674C12.778 24.2921 10.9158 26.1841 8.62681 26.1841ZM8.62681 19.2174C7.13381 19.2174 5.91949 20.4509 5.91949 21.9674C5.91949 23.4836 7.13381 24.7175 8.62681 24.7175C10.1198 24.7175 11.3341 23.4836 11.3341 21.9674C11.3341 20.4513 10.1198 19.2174 8.62681 19.2174Z" fill="#13C18B"/>
<path d="M27.6228 21.0882C27.2243 21.0882 26.9009 20.7597 26.9009 20.3549V18.6675C26.9009 18.2627 27.2243 17.9341 27.6228 17.9341C28.0213 17.9341 28.3448 18.2627 28.3448 18.6675V20.3549C28.3448 20.7593 28.0217 21.0882 27.6228 21.0882Z" fill="#13C18B"/>
<path d="M27.6228 26.0008C27.2243 26.0008 26.9009 25.6722 26.9009 25.2674V23.58C26.9009 23.1748 27.2243 22.8467 27.6228 22.8467C28.0213 22.8467 28.3448 23.1748 28.3448 23.58V25.2674C28.3448 25.6722 28.0217 26.0008 27.6228 26.0008Z" fill="#13C18B"/>
<path d="M26.1351 22.7007H24.4739C24.0754 22.7007 23.752 22.3722 23.752 21.9674C23.752 21.5626 24.0754 21.234 24.4739 21.234H26.1351C26.5336 21.234 26.8571 21.5626 26.8571 21.9674C26.8571 22.3722 26.534 22.7007 26.1351 22.7007Z" fill="#13C18B"/>
<path d="M30.7726 22.7007H29.1114C28.7128 22.7007 28.3894 22.3722 28.3894 21.9674C28.3894 21.5626 28.7128 21.234 29.1114 21.234H30.7726C31.1711 21.234 31.4945 21.5626 31.4945 21.9674C31.4945 22.3722 31.1711 22.7007 30.7726 22.7007Z" fill="#13C18B"/>
<path d="M17.9854 14.3813C17.5869 14.3813 17.2634 14.0528 17.2634 13.648V1.23334C17.2634 0.828534 17.5869 0.5 17.9854 0.5C18.3839 0.5 18.7073 0.828534 18.7073 1.23334V13.648C18.7073 14.0528 18.3839 14.3813 17.9854 14.3813Z" fill="#057953"/>
<defs>
<linearGradient id="paint0_linear_2038_387" x1="10.6417" y1="40.7693" x2="39.4882" y2="12.3055" gradientUnits="userSpaceOnUse">
<stop stop-color="#14C08C"/>
<stop offset="1" stop-color="#095A42"/>
</linearGradient>
</defs>
</svg>
