<svg width="40" height="41" viewBox="0 0 40 41" fill="none" xmlns="http://www.w3.org/2000/svg">
<path d="M27.4952 0.5C29.9796 0.5 31.9936 2.73858 31.9936 5.5L31.9926 7.17333L33.4931 7.17462C37.0806 7.17851 39.988 10.4084 39.9934 14.3943L40 27.7216C40.0038 30.4818 37.9907 32.7227 35.5056 32.7242L31.9886 32.7222V35.5C31.9886 38.2613 29.9746 40.5 27.4902 40.5H12.4956C10.0112 40.5 7.99716 38.2613 7.99716 35.5L7.99898 32.7222L4.4984 32.7224C2.014 32.7224 0 30.4838 0 27.7224V14.3968C0 10.4081 2.90911 7.17462 6.49769 7.17462L7.99516 7.17333L7.99716 5.5C7.99716 2.73858 10.0112 0.5 12.4956 0.5H27.4952ZM27.4902 23.8333H12.4956C11.6674 23.8333 10.9961 24.5796 10.9961 25.5V35.5C10.9961 36.4204 11.6674 37.1667 12.4956 37.1667H27.4902C28.3183 37.1667 28.9897 36.4204 28.9897 35.5V25.5C28.9897 24.5796 28.3183 23.8333 27.4902 23.8333ZM33.4917 10.508H6.49769C4.56538 10.508 2.99894 12.2491 2.99894 14.3968V27.7224C2.99894 28.6429 3.67028 29.3891 4.4984 29.3891L7.99716 29.3889V25.5C7.99716 22.7387 10.0112 20.5 12.4956 20.5H27.4902C29.9746 20.5 31.9886 22.7387 31.9886 25.5L31.9904 29.3891L35.5528 29.39C36.3581 29.3609 37.0023 28.626 37.0011 27.7249L36.9945 14.3977C36.9917 12.2511 35.4244 10.51 33.4917 10.508ZM27.4952 3.83333H12.4956C11.6674 3.83333 10.9961 4.57953 10.9961 5.5L10.9941 7.17333H28.9937L28.9947 5.5C28.9947 4.57953 28.3233 3.83333 27.4952 3.83333Z" fill="url(#paint0_linear_2048_245)"/>
<defs>
<linearGradient id="paint0_linear_2048_245" x1="20" y1="0.5" x2="15" y2="40.5" gradientUnits="userSpaceOnUse">
<stop stop-color="#13C18B"/>
<stop offset="1" stop-color="#095B42"/>
</linearGradient>
</defs>
</svg>
