<svg width="120" height="120" viewBox="0 0 120 120" fill="none" xmlns="http://www.w3.org/2000/svg">
<rect width="120" height="120" rx="60" fill="#13C18B"/>
<path d="M44 76.0002V62.0002H58L51.566 68.4402C53.7859 70.7102 56.8249 71.993 60 72.0002C65.0789 71.9927 69.603 68.7886 71.296 64.0002H71.332C71.5611 63.3494 71.7344 62.6803 71.85 62.0002H75.874C74.8661 70 68.063 75.9999 60 76.0002H59.98C55.7375 76.0128 51.6663 74.3276 48.674 71.3202L44 76.0002ZM48.148 58.0002H44.124C45.1315 50.0034 51.93 44.0044 59.99 44.0001H60C64.2433 43.9865 68.3154 45.6718 71.308 48.6802L76 44.0001V58.0002H62L68.444 51.5602C66.2218 49.2875 63.1786 48.0044 60 48.0002C54.9211 48.0077 50.397 51.2117 48.704 56.0002H48.668C48.4371 56.6504 48.2638 57.3196 48.15 58.0002H48.148Z" fill="white"/>
</svg>
