<svg width="25" height="24" viewBox="0 0 25 24" fill="none" xmlns="http://www.w3.org/2000/svg">
<path d="M7.5 8C7.5 5.23858 9.73858 3 12.5 3C15.2614 3 17.5 5.23858 17.5 8C17.5 10.7614 15.2614 13 12.5 13C9.73858 13 7.5 10.7614 7.5 8ZM12.5 11C14.1569 11 15.5 9.65685 15.5 8C15.5 6.34315 14.1569 5 12.5 5C10.8431 5 9.5 6.34315 9.5 8C9.5 9.65685 10.8431 11 12.5 11Z" fill="black"/>
<path d="M6.84315 16.3431C5.34285 17.8434 4.5 19.8783 4.5 22H6.5C6.5 20.4087 7.13214 18.8826 8.25736 17.7574C9.38258 16.6321 10.9087 16 12.5 16C14.0913 16 15.6174 16.6321 16.7426 17.7574C17.8679 18.8826 18.5 20.4087 18.5 22H20.5C20.5 19.8783 19.6571 17.8434 18.1569 16.3431C16.6566 14.8429 14.6217 14 12.5 14C10.3783 14 8.34344 14.8429 6.84315 16.3431Z" fill="black"/>
</svg>
