<svg width="40" height="41" viewBox="0 0 40 41" fill="none" xmlns="http://www.w3.org/2000/svg">
<path d="M34.3908 40.5H24.9195C24.5517 40.5 24.2299 39.9656 24.2299 39.355C24.2299 38.1336 24 36.9886 23.6322 35.9962C22.8506 33.8588 21.4713 32.5611 20 32.5611C18.5287 32.5611 17.1034 33.8588 16.3678 35.9962C16 36.9886 15.8161 38.2099 15.7701 39.355C15.7701 39.9656 15.4483 40.5 15.0805 40.5H5.6092C4.32184 40.5 3.26437 38.7443 3.26437 36.6069V19.126C3.26437 16.9886 4.32184 15.2328 5.6092 15.2328H34.4368C35.7241 15.2328 36.7816 16.9886 36.7816 19.126V36.6069C36.7356 38.7443 35.6782 40.5 34.3908 40.5ZM25.5632 38.2099H34.4368C34.9425 38.2099 35.4023 37.5229 35.4023 36.6069V19.126C35.4023 18.2863 34.9885 17.5229 34.4368 17.5229H5.6092C5.10345 17.5229 4.64368 18.2099 4.64368 19.126V36.6069C4.64368 37.4466 5.05747 38.2099 5.6092 38.2099H14.4828C14.5747 36.9886 14.8506 35.8435 15.2184 34.8512C16.2299 32.0267 18.069 30.271 20.046 30.271C22.023 30.271 23.8621 32.0267 24.8736 34.8512C25.1954 35.8435 25.4713 36.9886 25.5632 38.2099ZM3.77011 36.5305H2.16092C0.965517 36.5305 0 34.9275 0 32.9428V22.7901C0 20.8053 0.965517 19.2023 2.16092 19.2023H3.77011C4.13793 19.2023 4.45977 19.7366 4.45977 20.3473V35.3855C4.45977 35.9962 4.18391 36.5305 3.77011 36.5305ZM2.16092 21.4924C1.74713 21.4924 1.37931 22.1031 1.37931 22.7901V32.9428C1.37931 33.6298 1.74713 34.2405 2.16092 34.2405H3.08046V21.4924H2.16092ZM37.8391 36.5305H36.2299C35.8621 36.5305 35.5402 35.9962 35.5402 35.3855V20.3473C35.5402 19.7366 35.8621 19.2023 36.2299 19.2023H37.8391C39.0345 19.2023 40 20.8053 40 22.7901V32.9428C40 34.9275 39.0345 36.5305 37.8391 36.5305ZM36.9195 34.2405H37.8391C38.2529 34.2405 38.6207 33.6298 38.6207 32.9428V22.7901C38.6207 22.1031 38.2529 21.4924 37.8391 21.4924H36.9195V34.2405ZM22.5747 17.5229H17.4253C17.0575 17.5229 16.7356 16.9886 16.7356 16.3779V1.64504C16.7356 1.03435 17.0575 0.5 17.4253 0.5H22.5747C22.9425 0.5 23.2644 1.03435 23.2644 1.64504V16.3779C23.2644 17.0649 22.9425 17.5229 22.5747 17.5229ZM18.1149 15.2328H21.8851V2.79008H18.1149V15.2328ZM17.4253 17.5229H6.52874C6.16092 17.5229 5.83908 16.9886 5.83908 16.3779V9.12595C5.83908 6.91221 6.94253 5.08015 8.27586 5.08015H17.4253C17.7931 5.08015 18.1149 5.6145 18.1149 6.22519V16.3779C18.1149 17.0649 17.7931 17.5229 17.4253 17.5229ZM7.21839 15.2328H16.7356V7.37023H8.27586C7.67816 7.37023 7.21839 8.13359 7.21839 9.12595V15.2328ZM33.4713 17.5229H22.5747C22.2069 17.5229 21.8851 16.9886 21.8851 16.3779V6.22519C21.8851 5.6145 22.2069 5.08015 22.5747 5.08015H31.7241C33.0575 5.08015 34.1609 6.91221 34.1609 9.12595V16.3779C34.1609 17.0649 33.8391 17.5229 33.4713 17.5229ZM23.2644 15.2328H32.7816V9.12595C32.7816 8.13359 32.3218 7.37023 31.7241 7.37023H23.2644V15.2328ZM24.6897 21.4924C24.6897 20.8817 24.3678 20.3473 24 20.3473H16C15.6322 20.3473 15.3103 20.8817 15.3103 21.4924C15.3103 22.1031 15.6322 22.6374 16 22.6374H24.046C24.4138 22.6374 24.6897 22.1031 24.6897 21.4924Z" fill="url(#paint0_linear_2042_210)"/>
<defs>
<linearGradient id="paint0_linear_2042_210" x1="15.7143" y1="6.5" x2="46.628" y2="46.5599" gradientUnits="userSpaceOnUse">
<stop stop-color="#13C18B"/>
<stop offset="1" stop-color="#095B42"/>
</linearGradient>
</defs>
</svg>
