<svg width="22" height="21" viewBox="0 0 22 21" fill="none" xmlns="http://www.w3.org/2000/svg">
<g clip-path="url(#clip0_2005_323)">
<path d="M8.375 19.25C8.85825 19.25 9.25 18.8582 9.25 18.375C9.25 17.8918 8.85825 17.5 8.375 17.5C7.89175 17.5 7.5 17.8918 7.5 18.375C7.5 18.8582 7.89175 19.25 8.375 19.25Z" stroke="black" stroke-width="2" stroke-linecap="round" stroke-linejoin="round"/>
<path d="M18 19.25C18.4832 19.25 18.875 18.8582 18.875 18.375C18.875 17.8918 18.4832 17.5 18 17.5C17.5168 17.5 17.125 17.8918 17.125 18.375C17.125 18.8582 17.5168 19.25 18 19.25Z" stroke="black" stroke-width="2" stroke-linecap="round" stroke-linejoin="round"/>
<path d="M1.375 0.875H4.875L7.22 12.5913C7.30001 12.9941 7.51917 13.356 7.8391 13.6135C8.15904 13.8711 8.55936 14.0079 8.97 14H17.475C17.8856 14.0079 18.286 13.8711 18.6059 13.6135C18.9258 13.356 19.145 12.9941 19.225 12.5913L20.625 5.25H5.75" stroke="black" stroke-width="2" stroke-linecap="round" stroke-linejoin="round"/>
</g>
<defs>
<clipPath id="clip0_2005_323">
<rect width="21" height="21" fill="white" transform="translate(0.5)"/>
</clipPath>
</defs>
</svg>
