<svg width="25" height="24" viewBox="0 0 25 24" fill="none" xmlns="http://www.w3.org/2000/svg">
<path d="M12.5 20.9999C11.855 20.4279 11.126 19.8329 10.355 19.1999H10.345C7.63002 16.9799 4.55302 14.4679 3.19402 11.4579C2.74754 10.4996 2.51093 9.45703 2.50001 8.3999C2.49703 6.94939 3.07879 5.55889 4.11383 4.54267C5.14887 3.52645 6.54981 2.9703 8.00002 2.9999C9.18065 3.00177 10.3359 3.34298 11.328 3.9829C11.764 4.26587 12.1584 4.60816 12.5 4.9999C12.8435 4.6097 13.2381 4.26761 13.673 3.9829C14.6648 3.34286 15.8197 3.00162 17 2.9999C18.4502 2.9703 19.8512 3.52645 20.8862 4.54267C21.9213 5.55889 22.503 6.94939 22.5 8.3999C22.4898 9.45872 22.2532 10.5031 21.806 11.4629C20.447 14.4729 17.371 16.9839 14.656 19.1999L14.646 19.2079C13.874 19.8369 13.146 20.4319 12.501 21.0079L12.5 20.9999ZM8.00002 4.9999C7.06853 4.98825 6.17009 5.34475 5.50002 5.9919C4.85441 6.62607 4.49358 7.49495 4.49994 8.3999C4.51135 9.1704 4.68585 9.92976 5.01202 10.6279C5.65353 11.9266 6.51913 13.102 7.56902 14.0999C8.56002 15.0999 9.70002 16.0679 10.686 16.8819C10.959 17.1069 11.237 17.3339 11.515 17.5609L11.69 17.7039C11.957 17.9219 12.233 18.1479 12.5 18.3699L12.513 18.3579L12.519 18.3529H12.525L12.534 18.3459H12.539H12.544L12.562 18.3309L12.603 18.2979L12.61 18.2919L12.621 18.2839H12.627L12.636 18.2759L13.3 17.7309L13.474 17.5879C13.755 17.3589 14.033 17.1319 14.306 16.9069C15.292 16.0929 16.433 15.1259 17.424 14.1209C18.4741 13.1235 19.3397 11.9484 19.981 10.6499C20.3131 9.9457 20.4901 9.17841 20.5001 8.3999C20.5042 7.49774 20.1435 6.6322 19.5 5.9999C18.8312 5.34982 17.9326 4.99039 17 4.9999C15.8619 4.99023 14.774 5.46727 14.01 6.3109L12.5 8.0509L10.99 6.3109C10.2261 5.46727 9.1381 4.99023 8.00002 4.9999Z" fill="black"/>
</svg>
