<svg width="41" height="41" viewBox="0 0 41 41" fill="none" xmlns="http://www.w3.org/2000/svg">
<path d="M8.7125 0.5C6.16509 0.5 4.1 3.18629 4.1 6.5V26.5C4.1 29.8136 6.16509 32.5 8.7125 32.5H32.2875C34.8348 32.5 36.9 29.8136 36.9 26.5V6.5C36.9 3.18629 34.8348 0.5 32.2875 0.5H8.7125ZM7.175 6.5C7.175 5.39544 7.86337 4.5 8.7125 4.5H32.2875C33.1366 4.5 33.825 5.39544 33.825 6.5V26.5C33.825 27.6045 33.1366 28.5 32.2875 28.5H8.7125C7.86337 28.5 7.175 27.6045 7.175 26.5V6.5ZM1.5375 36.5C0.688369 36.5 0 37.3955 0 38.5C0 39.6045 0.688369 40.5 1.5375 40.5H39.4625C40.3116 40.5 41 39.6045 41 38.5C41 37.3955 40.3116 36.5 39.4625 36.5H1.5375Z" fill="url(#paint0_linear_2048_239)"/>
<defs>
<linearGradient id="paint0_linear_2048_239" x1="20.5" y1="0.5" x2="10.5356" y2="40.384" gradientUnits="userSpaceOnUse">
<stop stop-color="#13C18B"/>
<stop offset="1" stop-color="#095B42"/>
</linearGradient>
</defs>
</svg>
