<svg width="37" height="41" viewBox="0 0 37 41" fill="none" xmlns="http://www.w3.org/2000/svg">
<path d="M32.375 0.5H4.625C2.06969 0.5 0 2.7375 0 5.5V28C0 30.7625 2.06969 33 4.625 33H11.5625V38H6.9375V40.5H30.0625V38H25.4375V33H32.375C34.9303 33 37 30.7625 37 28V5.5C37 2.7375 34.9303 0.5 32.375 0.5ZM23.125 38H13.875V33H23.125V38ZM34.6875 25.5H2.3125V5.5C2.3125 4.12 3.35081 3 4.625 3H32.375C33.6492 3 34.6875 4.12 34.6875 5.5V25.5Z" fill="url(#paint0_linear_2048_252)"/>
<defs>
<linearGradient id="paint0_linear_2048_252" x1="18.5" y1="0.5" x2="10" y2="40.5" gradientUnits="userSpaceOnUse">
<stop stop-color="#13C18B"/>
<stop offset="1" stop-color="#095B42"/>
</linearGradient>
</defs>
</svg>
