<svg width="31" height="50" viewBox="0 0 31 50" fill="none" xmlns="http://www.w3.org/2000/svg">
<path d="M26.0461 0.5H4.95387C2.24712 0.5 0 2.96721 0 6.0082V43.9918C0 47.0328 2.19605 49.5 4.95387 49.5H26.0461C28.7529 49.5 31 47.0328 31 43.9918V6.0082C31 2.96721 28.804 0.5 26.0461 0.5ZM29.4679 43.9918C29.4679 46.1148 27.9358 47.7787 26.0461 47.7787H4.95387C3.06425 47.7787 1.53213 46.0574 1.53213 43.9918V6.0082C1.53213 3.88525 3.06425 2.22131 4.95387 2.22131H26.0461C27.9358 2.22131 29.4679 3.94262 29.4679 6.0082V43.9918Z" fill="url(#paint0_linear_2038_195)"/>
<path d="M21.7565 5.95068H9.14204C8.73347 5.95068 8.37598 6.35232 8.37598 6.81134C8.37598 7.27035 8.73347 7.67199 9.14204 7.67199H21.7565C22.1651 7.67199 22.5226 7.27035 22.5226 6.81134C22.5226 6.35232 22.1651 5.95068 21.7565 5.95068Z" fill="url(#paint1_linear_2038_195)"/>
<path d="M15.4749 38.8276C14.0449 38.8276 12.9214 40.1473 12.9214 41.6965C12.9214 42.4424 13.1767 43.1883 13.6874 43.7047C14.1471 44.2211 14.811 44.508 15.4749 44.508C16.9049 44.508 18.0285 43.1883 18.0285 41.6391C18.0285 40.0899 16.9049 38.8276 15.4749 38.8276ZM15.526 42.844C15.2706 42.844 15.0153 42.7293 14.811 42.4998C14.6067 42.2703 14.5046 41.9834 14.5046 41.6965C14.5046 41.0653 14.9642 40.5489 15.526 40.5489C16.0878 40.5489 16.5474 41.0653 16.5474 41.6965C16.5474 42.3276 16.0878 42.844 15.526 42.844Z" fill="url(#paint2_linear_2038_195)"/>
<defs>
<linearGradient id="paint0_linear_2038_195" x1="3" y1="1.02128" x2="26.0101" y2="48.2429" gradientUnits="userSpaceOnUse">
<stop stop-color="#13C18B"/>
<stop offset="0.593307" stop-color="#095B42"/>
</linearGradient>
<linearGradient id="paint1_linear_2038_195" x1="9.745" y1="5.969" x2="9.82189" y2="8.01883" gradientUnits="userSpaceOnUse">
<stop stop-color="#13C18B"/>
<stop offset="0.593307" stop-color="#095B42"/>
</linearGradient>
<linearGradient id="paint2_linear_2038_195" x1="13.4156" y1="38.8881" x2="15.4939" y2="44.9494" gradientUnits="userSpaceOnUse">
<stop stop-color="#13C18B"/>
<stop offset="0.593307" stop-color="#095B42"/>
</linearGradient>
</defs>
</svg>
