<svg width="40" height="46" viewBox="0 0 40 46" fill="none" xmlns="http://www.w3.org/2000/svg">
<path d="M0 7.8125C0 3.77391 3.63768 0.5 8.125 0.5H31.875C36.3622 0.5 40 3.77391 40 7.8125V38.1875C40 42.226 36.3622 45.5 31.875 45.5H8.125C3.63768 45.5 0 42.226 0 38.1875V7.8125ZM8.125 3.875C5.70875 3.875 3.75 5.63788 3.75 7.8125V38.1875C3.75 40.3621 5.70875 42.125 8.125 42.125H31.875C34.2912 42.125 36.25 40.3621 36.25 38.1875V7.8125C36.25 5.63788 34.2912 3.875 31.875 3.875H8.125ZM20 24.125C17.2385 24.125 15 26.1397 15 28.625C15 31.1103 17.2385 33.125 20 33.125C22.7615 33.125 25 31.1103 25 28.625C25 26.1397 22.7615 24.125 20 24.125ZM11.25 28.625C11.25 24.2758 15.1675 20.75 20 20.75C24.8325 20.75 28.75 24.2758 28.75 28.625C28.75 32.9742 24.8325 36.5 20 36.5C15.1675 36.5 11.25 32.9742 11.25 28.625ZM20 16.25C22.071 16.25 23.75 14.739 23.75 12.875C23.75 11.011 22.071 9.5 20 9.5C17.929 9.5 16.25 11.011 16.25 12.875C16.25 14.739 17.929 16.25 20 16.25Z" fill="url(#paint0_linear_2050_194)"/>
<defs>
<linearGradient id="paint0_linear_2050_194" x1="20" y1="0.5" x2="9" y2="45.5" gradientUnits="userSpaceOnUse">
<stop stop-color="#13C18B"/>
<stop offset="1" stop-color="#095B42"/>
</linearGradient>
</defs>
</svg>
