<svg width="120" height="120" viewBox="0 0 120 120" fill="none" xmlns="http://www.w3.org/2000/svg">
<rect width="120" height="120" rx="60" fill="#13C18B"/>
<path d="M73.995 76C56.9317 76.0242 43.9818 62.919 44 46.005C44 44.9005 44.8955 44 46 44H51.2787C52.2699 44 53.1119 44.7283 53.2574 45.7087C53.6062 48.0584 54.2903 50.3459 55.289 52.5014L55.4945 52.945C55.7803 53.5618 55.5866 54.2947 55.0334 54.6897C53.3986 55.8572 52.7738 58.2071 54.0474 60.0407C55.6456 62.3417 57.6601 64.3558 59.9605 65.9532C61.794 67.2264 64.1436 66.6018 65.311 64.9673C65.7063 64.4138 66.4396 64.22 67.0568 64.5059L67.4984 64.7104C69.654 65.709 71.9417 66.3932 74.2917 66.7419C75.2721 66.8874 76 67.7294 76 68.7205V74C76 75.1045 75.1024 76 73.9978 76L73.995 76Z" fill="white"/>
</svg>
