<svg width="35" height="35" viewBox="0 0 35 35" fill="none" xmlns="http://www.w3.org/2000/svg">
<path d="M24.212 8.4875C23.2151 7.34945 22.6657 5.88792 22.6661 4.375H18.1599V22.4583C18.1251 23.4369 17.712 24.3638 17.0075 25.0439C16.3029 25.7239 15.362 26.104 14.3828 26.1042C12.312 26.1042 10.5911 24.4125 10.5911 22.3125C10.5911 19.8042 13.012 17.9229 15.5057 18.6958V14.0875C10.4745 13.4167 6.07031 17.325 6.07031 22.3125C6.07031 27.1688 10.0953 30.625 14.3682 30.625C18.9474 30.625 22.6661 26.9063 22.6661 22.3125V13.1396C24.4934 14.4519 26.6873 15.1559 28.937 15.1521V10.6458C28.937 10.6458 26.1953 10.7771 24.212 8.4875Z" fill="#D62027"/>
</svg>
