<svg width="40" height="41" viewBox="0 0 40 41" fill="none" xmlns="http://www.w3.org/2000/svg">
<path d="M9.50057 40.5C8.6721 40.5 8.00048 39.7933 8.00048 38.9211C8.00048 38.1217 8.56481 37.4613 9.29702 37.3567L9.50057 37.3422L12.9988 37.3413V32.0825L4.50027 32.0831C2.11841 32.0831 0.16873 30.1354 0.0103804 27.6706L0 27.3464V5.23674C0 2.72972 1.85043 0.677596 4.19215 0.510926L4.50027 0.5H35.4997C37.8817 0.5 39.8314 2.44766 39.9896 4.91243L40 5.23674V27.3464C40 29.8533 38.1497 31.9054 35.8079 32.0722L35.4997 32.0831L26.9996 32.0825V37.3413L30.5018 37.3422C31.3303 37.3422 32.0019 38.0491 32.0019 38.9211C32.0019 39.7204 31.4375 40.3811 30.7054 40.4857L30.5018 40.5H9.50057ZM23.9974 32.0825H15.997L15.999 37.3422H23.9994L23.9974 32.0825ZM35.4997 3.65783H4.50027C3.74082 3.65783 3.11321 4.25182 3.01388 5.02249L3.00018 5.23674V27.3464C3.00018 28.1457 3.56451 28.8064 4.29672 28.9108L4.50027 28.9253H35.4997C36.2592 28.9253 36.8868 28.3312 36.9862 27.5605L36.9998 27.3464V5.23674C36.9998 4.43739 36.4356 3.77679 35.7033 3.67225L35.4997 3.65783Z" fill="url(#paint0_linear_2050_187)"/>
<defs>
<linearGradient id="paint0_linear_2050_187" x1="20" y1="0.5" x2="11" y2="40.5" gradientUnits="userSpaceOnUse">
<stop stop-color="#13C18B"/>
<stop offset="1" stop-color="#095B42"/>
</linearGradient>
</defs>
</svg>
